# xmcd
#
# Track frame offsets:
#	150
#	12637
#	26567
#	38075
#	53336
#	66321
#	79278
#	96162
#	112126
#	123996
#
# Disc length: 1908 seconds
#
# Revision: 1
# Processed by: cddbd v1.5.2PL0 Copyright (c) Steve Scherf et al.
# Submitted via: audiograbber 1.83.01
#
DISCID=8207720a
DTITLE=Royal Communications - Vol. 2
DYEAR=2002
DGENRE=Gospel
TTITLE0=The Melody Masters - Gone For Good
TTITLE1=Quintin Mills - I Am Blessed
TTITLE2=Aver Harreld - The Good New Is The bad News Is Wrong
TTITLE3=Mellissa Evers - Comrade
TTITLE4=The Brazells - When His Name Is Spoken
TTITLE5=Sally Cowan - Paul And Peter Walked
TTITLE6=Jack Sellars - We Will Stroll Together Hand In Hand
TTITLE7=The Charlie Payne Family - I Didn't Know I Was Your Hero
TTITLE8=Steve Underwood - Something To Sing About
TTITLE9=Reggie Oakes - Address To Our Nation
EXTD=
EXTT0=
EXTT1=
EXTT2=
EXTT3=
EXTT4=
EXTT5=
EXTT6=
EXTT7=
EXTT8=
EXTT9=
PLAYORDER=
